<?xml version="1.0" encoding="utf-8"?>
<!-- Generator: Adobe Illustrator 26.0.3, SVG Export Plug-In . SVG Version: 6.00 Build 0)  -->
<svg version="1.1" id="Layer_1" xmlns="http://www.w3.org/2000/svg" xmlns:xlink="http://www.w3.org/1999/xlink" x="0px" y="0px"
	 viewBox="0 0 1366 768" style="enable-background:new 0 0 1366 768;" xml:space="preserve">
<style type="text/css">
	.st0{fill:#FFFFFF;}
	.st1{fill:#3D71A0;}
</style>
<rect y="-1" class="st0" width="1366" height="769"/>
<circle cx="675.61" cy="384.18" r="247.75"/>
<g>
	<g>
		<path class="st0" d="M753.69,403.78c-0.64,3.36-4.04,5.42-7.32,4.47c-12.27-3.57-38.43-14.08-49.86-40.84
			c-10.34-24.21-1.69-46.27,2.5-54.64c10.48-20.87,35.06-42,66.36-42.14c0.11,0,0.21,0,0.32,0c32.89,0,62.81,23.08,72.13,54.72
			c0.97,3.28-1.03,6.7-4.39,7.38l0,0c-2.98,0.6-5.86-1.22-6.72-4.14c-7.9-26.82-33.21-46.39-61.02-46.39c-0.09,0-0.18,0-0.27,0
			c-26.4,0.12-47.19,18.05-56.08,35.76c-3.47,6.92-10.64,25.15-2.21,44.9c9.5,22.25,32.26,31.25,42.49,34.26
			c2.86,0.84,4.62,3.7,4.06,6.63L753.69,403.78z"/>
	</g>
	<g>
		<path class="st0" d="M758.97,494.26c-0.22,0-0.44,0-0.66,0c-29.86-0.14-52.1-12.17-64.78-21.41c-2.66-1.94-3.11-5.75-1.02-8.29
			l0.02-0.03c1.94-2.37,5.39-2.79,7.88-1c10.41,7.51,30.81,19.04,57.95,19.17c0.2,0,0.41,0,0.61,0c32.65,0,51.27-11.98,61.17-22.07
			c11.1-11.32,16.88-23.83,17.18-37.2c0.17-7.68-1.33-27.03-18.96-40.75c-11.7-9.1-24.97-11.35-33.29-11.75
			c-3.01-0.14-5.42-2.53-5.54-5.54l0,0c-0.14-3.37,2.63-6.17,6.01-6c9.9,0.48,25.78,3.16,39.92,14.15
			c21.78,16.94,23.64,40.71,23.42,50.14c-0.37,16.4-7.27,31.55-20.49,45.03C816.95,480.4,795.63,494.26,758.97,494.26z"/>
	</g>
	<g>
		<path class="st0" d="M797.13,260.86c-2.44,1.87-5.9,1.5-7.9-0.82c-12.53-14.58-54.76-57.18-120.54-57.18
			c-1.31,0-2.62,0.02-3.95,0.05c-53.55,1.38-90.25,30.62-104.62,44.41c-2.24,2.15-5.76,2.17-8.01,0.03l0,0
			c-2.38-2.26-2.41-6.06-0.04-8.33c15.47-14.82,54.87-46.19,112.37-47.67c1.42-0.04,2.84-0.05,4.24-0.05
			c70.42,0,115.69,45.41,129.32,61.23C800.17,255.03,799.76,258.84,797.13,260.86L797.13,260.86z"/>
	</g>
	<g>
		<path class="st0" d="M669.88,577.07c-70.42,0-115.69-45.41-129.33-61.23c-2.16-2.51-1.75-6.33,0.88-8.34l0,0
			c2.44-1.87,5.9-1.5,7.9,0.82c12.53,14.58,54.76,57.18,120.55,57.18c1.31,0,2.62-0.02,3.94-0.05
			c53.54-1.38,90.24-30.62,104.62-44.41c2.24-2.15,5.76-2.17,8.01-0.03l0,0c2.38,2.26,2.4,6.06,0.04,8.33
			c-15.47,14.82-54.88,46.18-112.37,47.67C672.69,577.05,671.28,577.07,669.88,577.07z"/>
	</g>
	<g>
		<path class="st0" d="M561.61,494.36c-15.75,0-31.5-3.49-45.97-10.48c-3.06-1.48-4.22-5.25-2.56-8.21v0
			c1.53-2.73,4.92-3.78,7.74-2.42c27.97,13.5,61.3,12.28,88.27-3.55c23-13.49,36.19-34.96,36.19-58.9V288.54
			c0-3.26-2.65-5.91-5.91-5.91H518.89c-3.26,0-5.91-2.65-5.91-5.91v0c0-3.26,2.65-5.91,5.91-5.91h132.3c3.26,0,5.91,2.65,5.91,5.91
			v134.1c0,28.24-15.32,53.42-42.03,69.09C598.64,489.54,580.13,494.36,561.61,494.36z"/>
	</g>
</g>
</svg>
